# xmcd
# 
# Track frame offsets:
#     150
#     14107
#     26607
#     37250
#     87332
#     106400
#     118412
#     141900
# 
# Disc length: 2410
# 
# Revision: 7
# Processed by: cddbd v1.5.2PL0 Copyright (c) Steve Scherf et al.
# Submitted via: fre:ac v1.0.17
# 
DISCID=75096808
DTITLE=Creedence Clearwater Revival - Creedence Gold
DYEAR=1972
DGENRE=Classic Rock
TTITLE0=Proud Mary
TTITLE1=Down On The Corner
TTITLE2=Bad Moon Rising
TTITLE3=I Heard It Through The Grapevine
TTITLE4=The Midnight Special
TTITLE5=Have You Ever Seen The Rain
TTITLE6=Born On The Bayou
TTITLE7=Suzie Q
EXTD=YEAR: 1972
EXTT0=
EXTT1=
EXTT2=
EXTT3=
EXTT4=
EXTT5=
EXTT6=
EXTT7=
PLAYORDER=
